<svg id="Ebene_1" data-name="Ebene 1" xmlns="http://www.w3.org/2000/svg" viewBox="0 0 252 349"><defs><style>.cls-1{fill:#e33a54;}.cls-2{fill:#8d2c4c;}.cls-3{fill:#8a304f;}.cls-4{fill:#502446;}.cls-5{fill:none;}</style></defs><title>reaclogo1</title><polygon class="cls-1" points="166 270 210 243 252 271 210 298 166 270"/><polygon class="cls-1" points="42 198 84 170 126 198 84 225 42 198"/><polygon class="cls-2" points="126 287 126 242 168 270 168 314 126 287"/><polygon class="cls-3" points="0 322 0 82 42 109 42 349 0 322"/><polygon class="cls-4" points="84 322 84 82 42 109 42 349 84 322"/><polygon class="cls-4" points="126 99 126 55 84 82 84 127 126 99"/><path class="cls-4" d="M834,447" transform="translate(-834 -365)"/><polygon class="cls-2" points="126 99 126 55 168 82 168 127 126 99"/><polygon class="cls-4" points="210 99 210 55 168 82 168 127 210 99"/><polygon class="cls-2" points="168 171 168 127 210 154 210 199 168 171"/><polygon class="cls-2" points="126 242 126 198 168 225 168 270 126 242"/><polygon class="cls-4" points="252 171 252 127 210 154 210 199 252 171"/><polygon class="cls-4" points="126 242 126 198 84 225 84 270 126 242"/><polygon class="cls-1" points="168 127 210 99 252 127 210 154 168 127"/><polygon class="cls-4" points="252 314 252 271 210 297 210 342 252 314"/><polygon class="cls-2" points="168 314 168 270 210 297 210 342 168 314"/><polygon class="cls-1" points="126 198 168 171 210 199 168 226 126 198"/><polygon class="cls-1" points="0 82 42 55 84 82 42 109 0 82"/><polygon class="cls-1" points="42 55 84 28 126 55 84 82 42 55"/><polygon class="cls-1" points="126 55 168 28 210 55 168 82 126 55"/><polygon class="cls-1" points="84 28 126 0 168 28 126 55 84 28"/><polygon class="cls-4" points="210 243 210 199 168 226 168 270 210 243"/><polygon class="cls-5" points="84 127 126 99 168 127 168 171 126 199 84 171 84 127"/></svg>